<?xml version="1.0" encoding="UTF-8"?>
<svg id="Camada_3" data-name="Camada 3" xmlns="http://www.w3.org/2000/svg" xmlns:xlink="http://www.w3.org/1999/xlink" viewBox="0 0 1716.95 370.43">
  <defs>
    <style>
      .cls-1 {
        fill: url(#Nova_amostra_de_gradiente_1-18);
      }

      .cls-2 {
        fill: url(#Nova_amostra_de_gradiente_1-17);
      }

      .cls-3 {
        fill: url(#Nova_amostra_de_gradiente_1-8);
      }

      .cls-4 {
        fill: url(#Nova_amostra_de_gradiente_1);
      }

      .cls-5 {
        fill: url(#Nova_amostra_de_gradiente_1-5);
      }

      .cls-6 {
        fill: url(#Nova_amostra_de_gradiente_1-15);
      }

      .cls-7 {
        fill: url(#Nova_amostra_de_gradiente_1-13);
      }

      .cls-8 {
        fill: url(#Nova_amostra_de_gradiente_1-3);
      }

      .cls-9 {
        fill: url(#Nova_amostra_de_gradiente_1-2);
      }

      .cls-10 {
        fill: url(#Nova_amostra_de_gradiente_1-7);
      }

      .cls-11 {
        fill: url(#Nova_amostra_de_gradiente_1-6);
      }

      .cls-12 {
        fill: url(#Nova_amostra_de_gradiente_1-9);
      }

      .cls-13 {
        fill: url(#Nova_amostra_de_gradiente_1-10);
      }

      .cls-14 {
        fill: url(#Nova_amostra_de_gradiente_1-14);
      }

      .cls-15 {
        fill: url(#Nova_amostra_de_gradiente_1-4);
      }

      .cls-16 {
        fill: url(#Nova_amostra_de_gradiente_1-12);
      }

      .cls-17 {
        fill: url(#Nova_amostra_de_gradiente_1-11);
      }

      .cls-18 {
        fill: url(#Nova_amostra_de_gradiente_1-19);
      }

      .cls-19 {
        fill: url(#Nova_amostra_de_gradiente_1-16);
      }
    </style>
    <linearGradient id="Nova_amostra_de_gradiente_1" data-name="Nova amostra de gradiente 1" x1="459.84" y1="147.3" x2="1638.53" y2="462.81" gradientUnits="userSpaceOnUse">
      <stop offset="0" stop-color="#ffac13"/>
      <stop offset="1" stop-color="#fe7003"/>
    </linearGradient>
    <linearGradient id="Nova_amostra_de_gradiente_1-2" data-name="Nova amostra de gradiente 1" x1="466.03" y1="124.15" x2="1644.73" y2="439.66" xlink:href="#Nova_amostra_de_gradiente_1"/>
    <linearGradient id="Nova_amostra_de_gradiente_1-3" data-name="Nova amostra de gradiente 1" x1="470.65" y1="106.9" x2="1649.35" y2="422.41" xlink:href="#Nova_amostra_de_gradiente_1"/>
    <linearGradient id="Nova_amostra_de_gradiente_1-4" data-name="Nova amostra de gradiente 1" x1="476.6" y1="84.68" x2="1655.3" y2="400.19" xlink:href="#Nova_amostra_de_gradiente_1"/>
    <linearGradient id="Nova_amostra_de_gradiente_1-5" data-name="Nova amostra de gradiente 1" x1="486.73" y1="46.84" x2="1665.42" y2="362.35" xlink:href="#Nova_amostra_de_gradiente_1"/>
    <linearGradient id="Nova_amostra_de_gradiente_1-6" data-name="Nova amostra de gradiente 1" x1="490.35" y1="33.32" x2="1669.04" y2="348.83" xlink:href="#Nova_amostra_de_gradiente_1"/>
    <linearGradient id="Nova_amostra_de_gradiente_1-7" data-name="Nova amostra de gradiente 1" x1="499.53" y1="-.98" x2="1678.22" y2="314.53" xlink:href="#Nova_amostra_de_gradiente_1"/>
    <linearGradient id="Nova_amostra_de_gradiente_1-8" data-name="Nova amostra de gradiente 1" x1="505.67" y1="-23.92" x2="1684.36" y2="291.59" xlink:href="#Nova_amostra_de_gradiente_1"/>
    <linearGradient id="Nova_amostra_de_gradiente_1-9" data-name="Nova amostra de gradiente 1" x1="511.3" y1="-44.95" x2="1689.99" y2="270.56" xlink:href="#Nova_amostra_de_gradiente_1"/>
    <linearGradient id="Nova_amostra_de_gradiente_1-10" data-name="Nova amostra de gradiente 1" x1="516.8" y1="-65.52" x2="1695.5" y2="249.99" xlink:href="#Nova_amostra_de_gradiente_1"/>
    <linearGradient id="Nova_amostra_de_gradiente_1-11" data-name="Nova amostra de gradiente 1" x1="522.48" y1="-86.72" x2="1701.18" y2="228.79" xlink:href="#Nova_amostra_de_gradiente_1"/>
    <linearGradient id="Nova_amostra_de_gradiente_1-12" data-name="Nova amostra de gradiente 1" x1="525.82" y1="-99.22" x2="1704.52" y2="216.29" xlink:href="#Nova_amostra_de_gradiente_1"/>
    <linearGradient id="Nova_amostra_de_gradiente_1-13" data-name="Nova amostra de gradiente 1" x1="532.13" y1="-122.78" x2="1710.83" y2="192.72" xlink:href="#Nova_amostra_de_gradiente_1"/>
    <linearGradient id="Nova_amostra_de_gradiente_1-14" data-name="Nova amostra de gradiente 1" x1="220.87" y1="-19.75" x2="240.47" y2="364.54" xlink:href="#Nova_amostra_de_gradiente_1"/>
    <linearGradient id="Nova_amostra_de_gradiente_1-15" data-name="Nova amostra de gradiente 1" x1="92.58" y1="-13.2" x2="112.19" y2="371.08" xlink:href="#Nova_amostra_de_gradiente_1"/>
    <linearGradient id="Nova_amostra_de_gradiente_1-16" data-name="Nova amostra de gradiente 1" x1="263.46" y1="-21.92" x2="283.07" y2="362.37" xlink:href="#Nova_amostra_de_gradiente_1"/>
    <linearGradient id="Nova_amostra_de_gradiente_1-17" data-name="Nova amostra de gradiente 1" x1="239.38" y1="-20.69" x2="258.98" y2="363.59" xlink:href="#Nova_amostra_de_gradiente_1"/>
    <linearGradient id="Nova_amostra_de_gradiente_1-18" data-name="Nova amostra de gradiente 1" x1="261.07" y1="-21.8" x2="280.68" y2="362.49" xlink:href="#Nova_amostra_de_gradiente_1"/>
    <linearGradient id="Nova_amostra_de_gradiente_1-19" data-name="Nova amostra de gradiente 1" x1="285.03" y1="-23.02" x2="304.64" y2="361.27" xlink:href="#Nova_amostra_de_gradiente_1"/>
  </defs>
  <g>
    <path class="cls-4" d="M560.87,187.74l-5.38,36.59c-.29,1.85-.88,3.53-1.78,5.03-.9,1.5-2.02,2.76-3.38,3.77-1.36,1.01-2.9,1.75-4.64,2.21-1.73.46-3.53.55-5.38.26-1.85-.29-3.51-.88-4.99-1.78-1.47-.9-2.73-2.02-3.77-3.38-1.04-1.36-1.79-2.89-2.25-4.6-.46-1.7-.58-3.48-.35-5.33l12.4-83.68c.23-2.08.95-3.93,2.17-5.55,1.5-2.48,3.7-4.31,6.59-5.46,1.67-.69,3.38-1.03,5.11-1,1.73.03,3.38.38,4.94,1.04,1.56.67,2.98,1.6,4.25,2.82,1.27,1.21,2.28,2.66,3.03,4.34l22.28,54.37,22.02-54.37c.69-1.68,1.66-3.12,2.91-4.34,1.24-1.21,2.64-2.14,4.21-2.77,1.56-.64,3.21-.98,4.94-1.04,1.73-.06,3.44.26,5.12.95,1.27.52,2.43,1.21,3.47,2.08,1.5.98,2.73,2.25,3.69,3.81.95,1.56,1.55,3.3,1.78,5.2l11.27,84.02c.23,1.85.09,3.63-.43,5.33-.52,1.71-1.32,3.22-2.39,4.55-1.07,1.33-2.37,2.43-3.9,3.3-1.53.87-3.22,1.39-5.07,1.56-1.85.23-3.61.12-5.29-.35-1.68-.46-3.19-1.2-4.55-2.21-1.36-1.01-2.49-2.28-3.38-3.82-.9-1.53-1.46-3.22-1.69-5.07l-4.77-35.55-15.78,38.67c-.64,1.5-1.49,2.82-2.56,3.95-1.07,1.13-2.27,2.04-3.6,2.73-1.33.69-2.75,1.16-4.25,1.39-1.5.23-3.03.2-4.6-.09-2.08-.4-3.99-1.29-5.72-2.64-1.73-1.36-3.09-3.14-4.08-5.33l-16.21-39.63Z"/>
    <path class="cls-9" d="M688.85,222.51c0,1.85-.35,3.59-1.04,5.2-.69,1.62-1.65,3.02-2.86,4.21-1.21,1.19-2.64,2.11-4.29,2.77-1.65.67-3.4,1-5.25,1s-3.59-.33-5.2-1c-1.62-.66-3.03-1.59-4.25-2.77-1.21-1.18-2.17-2.59-2.86-4.21-.69-1.62-1.04-3.35-1.04-5.2v-84.63c0-1.85.35-3.57,1.04-5.16.69-1.59,1.65-2.98,2.86-4.16,1.21-1.18,2.63-2.12,4.25-2.82,1.62-.69,3.35-1.04,5.2-1.04s3.6.35,5.25,1.04c1.65.69,3.08,1.63,4.29,2.82,1.21,1.19,2.17,2.57,2.86,4.16.69,1.59,1.04,3.31,1.04,5.16v84.63Z"/>
    <path class="cls-8" d="M747.21,196.06c-6.88-1.21-12.95-2.8-18.21-4.77-5.26-1.96-9.65-4.41-13.18-7.33-3.53-2.92-6.19-6.34-7.98-10.28-1.79-3.93-2.69-8.44-2.69-13.53s1.03-9.84,3.08-14.26c2.05-4.42,4.89-8.27,8.5-11.53,3.61-3.27,7.85-5.82,12.7-7.67,4.85-1.85,10.11-2.77,15.78-2.77,3.47,0,6.94.35,10.41,1.04,3.47.69,6.76,1.73,9.89,3.12s5.95,3.11,8.5,5.16c2.54,2.05,4.62,4.44,6.24,7.15.75,1.21,1.2,2.49,1.34,3.82.14,1.33.09,2.62-.17,3.86-.26,1.24-.71,2.4-1.34,3.47-.64,1.07-1.36,1.98-2.17,2.73-.87.93-1.95,1.69-3.25,2.3-1.3.61-2.7,1-4.21,1.17-1.5.17-3.05.09-4.64-.26-1.59-.35-3.11-1.01-4.55-1.99-1.5-.64-2.73-1.24-3.69-1.82-.95-.58-1.94-1.08-2.95-1.52-1.01-.43-2.21-.78-3.6-1.04-1.39-.26-3.21-.39-5.46-.39-2.49,0-4.58.26-6.29.78-1.71.52-3.11,1.21-4.21,2.08-1.1.87-1.88,1.85-2.34,2.95-.46,1.1-.69,2.23-.69,3.38,0,1.68.42,3.02,1.26,4.03.84,1.01,2.21,1.86,4.12,2.56,1.91.69,4.36,1.33,7.37,1.91,3,.58,6.68,1.27,11.01,2.08,3.76.69,7.44,1.75,11.06,3.17,3.61,1.42,6.85,3.34,9.71,5.77,2.86,2.43,5.17,5.45,6.94,9.06,1.76,3.61,2.65,7.93,2.65,12.96,0,4.68-1.01,9.16-3.03,13.44-2.02,4.28-4.86,8.05-8.5,11.32-3.64,3.27-8.01,5.85-13.09,7.76-5.09,1.91-10.69,2.86-16.82,2.86-4.62,0-9.02-.59-13.18-1.78-4.16-1.18-7.96-2.77-11.4-4.77-3.44-1.99-6.46-4.34-9.06-7.02s-4.63-5.51-6.07-8.45c-1.04-2.14-1.64-4.15-1.78-6.03-.15-1.88.06-3.6.61-5.16.55-1.56,1.37-2.93,2.47-4.12,1.1-1.18,2.34-2.18,3.73-2.99,3.41-1.85,6.57-2.25,9.49-1.21,2.92,1.04,5.91,3.47,8.98,7.28,1.21,1.27,2.43,2.38,3.64,3.34,1.21.95,2.5,1.73,3.86,2.34,1.36.61,2.83,1.06,4.42,1.34,1.59.29,3.37.43,5.33.43,1.73,0,3.43-.17,5.07-.52,1.65-.35,3.11-.84,4.38-1.47,1.27-.64,2.3-1.37,3.08-2.21.78-.84,1.17-1.78,1.17-2.82,0-1.21-.38-2.21-1.13-2.99-.75-.78-1.72-1.43-2.9-1.95-1.19-.52-2.5-.92-3.95-1.21-1.45-.29-2.86-.55-4.25-.78Z"/>
    <path class="cls-15" d="M836.17,196.06c-6.88-1.21-12.95-2.8-18.21-4.77-5.26-1.96-9.65-4.41-13.18-7.33-3.53-2.92-6.19-6.34-7.98-10.28-1.79-3.93-2.69-8.44-2.69-13.53s1.03-9.84,3.08-14.26c2.05-4.42,4.88-8.27,8.5-11.53,3.61-3.27,7.85-5.82,12.7-7.67,4.86-1.85,10.11-2.77,15.78-2.77,3.47,0,6.94.35,10.41,1.04,3.47.69,6.76,1.73,9.88,3.12s5.95,3.11,8.5,5.16c2.54,2.05,4.62,4.44,6.24,7.15.75,1.21,1.2,2.49,1.34,3.82.14,1.33.09,2.62-.17,3.86-.26,1.24-.71,2.4-1.34,3.47-.64,1.07-1.36,1.98-2.17,2.73-.87.93-1.95,1.69-3.25,2.3-1.3.61-2.7,1-4.21,1.17-1.5.17-3.05.09-4.64-.26-1.59-.35-3.11-1.01-4.55-1.99-1.5-.64-2.73-1.24-3.69-1.82-.95-.58-1.94-1.08-2.95-1.52-1.01-.43-2.21-.78-3.6-1.04-1.39-.26-3.21-.39-5.46-.39-2.49,0-4.58.26-6.29.78-1.71.52-3.11,1.21-4.21,2.08-1.1.87-1.88,1.85-2.34,2.95-.46,1.1-.69,2.23-.69,3.38,0,1.68.42,3.02,1.26,4.03.84,1.01,2.21,1.86,4.12,2.56,1.91.69,4.36,1.33,7.37,1.91,3,.58,6.68,1.27,11.01,2.08,3.76.69,7.44,1.75,11.05,3.17,3.61,1.42,6.85,3.34,9.71,5.77,2.86,2.43,5.17,5.45,6.94,9.06,1.76,3.61,2.64,7.93,2.64,12.96,0,4.68-1.01,9.16-3.03,13.44-2.02,4.28-4.86,8.05-8.5,11.32-3.64,3.27-8.01,5.85-13.09,7.76-5.09,1.91-10.69,2.86-16.82,2.86-4.63,0-9.02-.59-13.18-1.78-4.16-1.18-7.96-2.77-11.4-4.77-3.44-1.99-6.46-4.34-9.06-7.02s-4.63-5.51-6.07-8.45c-1.04-2.14-1.63-4.15-1.78-6.03-.15-1.88.06-3.6.61-5.16.55-1.56,1.37-2.93,2.47-4.12,1.1-1.18,2.34-2.18,3.73-2.99,3.41-1.85,6.57-2.25,9.49-1.21,2.92,1.04,5.91,3.47,8.97,7.28,1.21,1.27,2.43,2.38,3.64,3.34,1.21.95,2.5,1.73,3.86,2.34,1.36.61,2.83,1.06,4.42,1.34,1.59.29,3.37.43,5.33.43,1.73,0,3.43-.17,5.07-.52,1.65-.35,3.11-.84,4.38-1.47,1.27-.64,2.3-1.37,3.08-2.21.78-.84,1.17-1.78,1.17-2.82,0-1.21-.38-2.21-1.13-2.99-.75-.78-1.72-1.43-2.91-1.95-1.19-.52-2.5-.92-3.95-1.21-1.45-.29-2.86-.55-4.25-.78Z"/>
    <path class="cls-5" d="M947.24,210.46h-34.77l-6.85,17.17c-.69,1.79-1.71,3.3-3.03,4.51-1.33,1.21-2.82,2.11-4.47,2.69-1.65.58-3.38.85-5.2.82-1.82-.03-3.6-.42-5.33-1.17-1.79-.75-3.27-1.76-4.42-3.03-1.16-1.27-1.99-2.7-2.51-4.29-.52-1.59-.74-3.27-.65-5.03.09-1.76.53-3.51,1.34-5.25l36.68-84.02c1.16-2.6,2.8-4.61,4.94-6.03,2.14-1.42,4.6-2.12,7.37-2.12,2.6,0,4.97.69,7.11,2.08s3.76,3.38,4.86,5.98l36.07,84.02c.75,1.73,1.18,3.48,1.3,5.25.11,1.76-.07,3.44-.56,5.03-.49,1.59-1.3,3.03-2.43,4.34-1.13,1.3-2.56,2.33-4.29,3.08-1.73.75-3.5,1.14-5.29,1.17-1.79.03-3.5-.26-5.12-.87-1.62-.61-3.09-1.52-4.42-2.73-1.33-1.21-2.4-2.69-3.21-4.42l-7.11-17.17ZM901.28,97.82c.46-.46.92-.84,1.39-1.13.46-.29.95-.58,1.47-.87.87-.64,1.86-1.36,2.99-2.17,1.13-.81,2.39-1.56,3.77-2.25,1.39-.69,2.88-1.27,4.47-1.73,1.59-.46,3.25-.69,4.99-.69,2.43,0,4.49.36,6.2,1.08,1.7.72,3.48,1.75,5.33,3.08.17.12.42.33.74.65.32.32.68.62,1.08.91.4.29.85.55,1.34.78.49.23,1,.35,1.52.35-.12,0,.23-.09,1.04-.26s2.05-.92,3.73-2.25c1.04-.98,2.22-1.72,3.55-2.21,1.33-.49,2.69-.72,4.07-.69,1.39.03,2.73.3,4.03.82,1.3.52,2.44,1.33,3.43,2.43,1.04,1.04,1.81,2.21,2.3,3.51s.74,2.62.74,3.95-.26,2.64-.78,3.95-1.3,2.47-2.34,3.51l-.09.09c-.41.41-.8.74-1.17,1-.38.26-.79.54-1.26.82-.81.64-1.79,1.36-2.95,2.17-1.16.81-2.46,1.56-3.9,2.25-1.45.69-2.99,1.29-4.64,1.78-1.65.49-3.37.74-5.16.74-2.31,0-4.35-.36-6.11-1.08-1.76-.72-3.54-1.75-5.33-3.08-.12-.06-.32-.23-.61-.52-.29-.29-.65-.59-1.08-.91-.43-.32-.9-.61-1.39-.87-.49-.26-1-.39-1.52-.39-.06,0-.48.09-1.26.26-.78.17-1.95.93-3.51,2.25-1.04,1.04-2.23,1.82-3.55,2.34-1.33.52-2.69.77-4.07.74-1.39-.03-2.75-.3-4.08-.82-1.33-.52-2.51-1.3-3.55-2.34-.98-1.04-1.72-2.22-2.21-3.56-.49-1.33-.74-2.69-.74-4.08s.26-2.73.78-4.03,1.3-2.47,2.34-3.51ZM923.14,183.66h13.09l-6.68-16.13-6.42,16.13Z"/>
    <path class="cls-11" d="M1039.67,123.92c5.14,0,10.13.68,14.96,2.04,4.83,1.36,9.33,3.25,13.53,5.68,4.19,2.43,8.01,5.36,11.45,8.8,3.44,3.44,6.39,7.26,8.84,11.45,2.46,4.19,4.37,8.69,5.72,13.48,1.36,4.8,2.04,9.8,2.04,15,0,7.8-1.49,15.12-4.47,21.94-2.98,6.82-7.02,12.79-12.14,17.91-5.12,5.12-11.11,9.15-17.99,12.1-6.88,2.95-14.19,4.42-21.94,4.42s-15.13-1.47-21.98-4.42c-6.85-2.95-12.8-6.98-17.86-12.1-5.06-5.12-9.05-11.08-11.97-17.91-2.92-6.82-4.38-14.13-4.38-21.94,0-5.2.67-10.2,1.99-15,1.33-4.8,3.21-9.29,5.64-13.48,2.43-4.19,5.35-8.01,8.76-11.45,3.41-3.44,7.2-6.37,11.36-8.8,4.16-2.43,8.64-4.32,13.44-5.68,4.8-1.36,9.8-2.04,15-2.04ZM1039.76,150.97c-4.11,0-7.95.77-11.53,2.3-3.59,1.53-6.71,3.63-9.37,6.29-2.66,2.66-4.74,5.78-6.24,9.36-1.5,3.58-2.25,7.4-2.25,11.45s.75,8.05,2.25,11.66c1.5,3.61,3.58,6.73,6.24,9.36,2.66,2.63,5.78,4.7,9.37,6.2,3.58,1.5,7.43,2.25,11.53,2.25s7.95-.75,11.53-2.25c3.58-1.5,6.69-3.57,9.32-6.2,2.63-2.63,4.71-5.75,6.24-9.36,1.53-3.61,2.3-7.5,2.3-11.66s-.77-7.86-2.3-11.45c-1.53-3.58-3.61-6.71-6.24-9.36-2.63-2.66-5.74-4.75-9.32-6.29-3.58-1.53-7.43-2.3-11.53-2.3Z"/>
    <path class="cls-10" d="M1183.35,124.7c5.14,0,10.13.65,14.96,1.95s9.33,3.15,13.53,5.55c4.19,2.4,8.01,5.29,11.45,8.67,3.44,3.38,6.39,7.13,8.84,11.23,2.46,4.11,4.37,8.54,5.72,13.31,1.36,4.77,2.04,9.76,2.04,14.96s-.68,10.16-2.04,14.87c-1.36,4.71-3.25,9.12-5.68,13.22-2.43,4.11-5.36,7.82-8.8,11.14-3.44,3.32-7.24,6.17-11.4,8.54-4.16,2.37-8.63,4.22-13.4,5.55-4.77,1.33-9.73,1.99-14.87,1.99h-20.12c-1.85,0-3.59-.33-5.2-1-1.62-.66-3.03-1.59-4.25-2.77-1.21-1.18-2.17-2.59-2.86-4.21-.69-1.62-1.04-3.35-1.04-5.2v-84.63c0-1.85.35-3.57,1.04-5.16.69-1.59,1.65-2.98,2.86-4.16,1.21-1.18,2.63-2.12,4.25-2.82,1.62-.69,3.35-1.04,5.2-1.04h19.77ZM1212.83,180.37c0-4.05-.77-7.82-2.3-11.32-1.53-3.5-3.61-6.52-6.24-9.06-2.63-2.54-5.74-4.55-9.32-6.03s-7.43-2.21-11.53-2.21h-6.42v57.05h6.42c4.1,0,7.95-.69,11.53-2.08s6.69-3.34,9.32-5.85c2.63-2.51,4.71-5.52,6.24-9.02,1.53-3.5,2.3-7.33,2.3-11.49Z"/>
    <path class="cls-3" d="M1281.67,222.51c0,1.85-.35,3.59-1.04,5.2-.69,1.62-1.65,3.02-2.86,4.21-1.21,1.19-2.65,2.11-4.29,2.77-1.65.67-3.4,1-5.25,1s-3.58-.33-5.2-1c-1.62-.66-3.04-1.59-4.25-2.77-1.21-1.18-2.17-2.59-2.86-4.21-.69-1.62-1.04-3.35-1.04-5.2v-84.63c0-1.85.35-3.57,1.04-5.16.69-1.59,1.65-2.98,2.86-4.16,1.21-1.18,2.63-2.12,4.25-2.82,1.62-.69,3.35-1.04,5.2-1.04s3.6.35,5.25,1.04c1.65.69,3.08,1.63,4.29,2.82,1.21,1.19,2.17,2.57,2.86,4.16.69,1.59,1.04,3.31,1.04,5.16v84.63Z"/>
    <path class="cls-12" d="M1323.55,180.37c0,4.16.75,8.05,2.25,11.66,1.5,3.61,3.58,6.73,6.24,9.36,2.66,2.63,5.78,4.7,9.36,6.2,3.58,1.5,7.43,2.25,11.53,2.25,4.45,0,8.4-.52,11.84-1.56,3.44-1.04,6.2-2.77,8.28-5.2h-4.25c-1.85,0-3.58-.35-5.2-1.04-1.62-.69-3.02-1.65-4.21-2.86-1.19-1.21-2.11-2.64-2.77-4.29-.67-1.65-1-3.4-1-5.25s.33-3.5,1-5.12c.66-1.62,1.59-3.04,2.77-4.25,1.18-1.21,2.59-2.18,4.21-2.9,1.62-.72,3.35-1.08,5.2-1.08l21.85.17c1.85,0,3.58.35,5.2,1.04,1.62.69,3.03,1.62,4.25,2.77,1.21,1.16,2.18,2.54,2.9,4.16.72,1.62,1.08,3.38,1.08,5.29.11,6.76-1.19,13.02-3.9,18.77-2.72,5.75-6.42,10.72-11.1,14.91-4.68,4.19-10.15,7.46-16.39,9.8-6.24,2.34-12.86,3.51-19.86,3.51-5.2,0-10.2-.67-15-1.99-4.8-1.33-9.28-3.21-13.44-5.64-4.16-2.43-7.95-5.35-11.36-8.76-3.41-3.41-6.33-7.2-8.76-11.36-2.43-4.16-4.31-8.63-5.64-13.4-1.33-4.77-1.99-9.76-1.99-14.96s.65-10.12,1.95-14.91c1.3-4.8,3.15-9.29,5.55-13.48,2.4-4.19,5.27-8.03,8.63-11.53,3.35-3.5,7.08-6.49,11.19-8.97,4.1-2.48,8.54-4.41,13.31-5.77,4.77-1.36,9.75-2.04,14.96-2.04,8.09,0,15.46,1.4,22.11,4.21,6.65,2.8,12.77,6.98,18.38,12.53,1.27,1.27,2.23,2.7,2.86,4.29.64,1.59.95,3.22.95,4.9s-.32,3.34-.95,4.99-1.59,3.11-2.86,4.38c-1.33,1.27-2.8,2.24-4.42,2.9-1.62.67-3.28,1.03-4.99,1.08-1.71.06-3.38-.22-5.03-.82-1.65-.61-3.14-1.57-4.47-2.9-3.06-2.95-6.39-5.09-9.97-6.42-3.58-1.33-7.34-1.99-11.27-1.99s-7.66.75-11.19,2.25c-3.53,1.5-6.61,3.57-9.23,6.2-2.63,2.63-4.73,5.74-6.29,9.32-1.56,3.58-2.34,7.43-2.34,11.53Z"/>
    <path class="cls-13" d="M1448.24,222.51c0,1.85-.35,3.59-1.04,5.2-.69,1.62-1.65,3.02-2.86,4.21-1.21,1.19-2.64,2.11-4.29,2.77-1.65.67-3.4,1-5.25,1s-3.59-.33-5.2-1c-1.62-.66-3.03-1.59-4.25-2.77-1.21-1.18-2.17-2.59-2.86-4.21-.69-1.62-1.04-3.35-1.04-5.2v-84.63c0-1.85.35-3.57,1.04-5.16.69-1.59,1.65-2.98,2.86-4.16,1.21-1.18,2.63-2.12,4.25-2.82,1.62-.69,3.35-1.04,5.2-1.04s3.6.35,5.25,1.04c1.65.69,3.08,1.63,4.29,2.82,1.21,1.19,2.17,2.57,2.86,4.16.69,1.59,1.04,3.31,1.04,5.16v84.63Z"/>
    <path class="cls-17" d="M1518.3,151.41v71.1c0,1.85-.36,3.59-1.08,5.2-.72,1.62-1.69,3.02-2.9,4.21-1.21,1.19-2.65,2.11-4.29,2.77-1.65.67-3.4,1-5.25,1s-3.54-.33-5.07-1c-1.53-.66-2.88-1.59-4.03-2.77-1.16-1.18-2.05-2.59-2.69-4.21-.64-1.62-.95-3.35-.95-5.2v-71.1h-17.17c-1.85,0-3.59-.35-5.2-1.04-1.62-.69-3.02-1.65-4.21-2.86-1.19-1.21-2.12-2.64-2.82-4.29-.69-1.65-1.04-3.4-1.04-5.25s.35-3.58,1.04-5.2c.69-1.62,1.63-3.02,2.82-4.21s2.59-2.12,4.21-2.82c1.62-.69,3.35-1.04,5.2-1.04h59.74c1.85,0,3.58.36,5.2,1.08,1.62.72,3.03,1.69,4.25,2.9,1.21,1.21,2.17,2.64,2.86,4.29.69,1.65,1.04,3.4,1.04,5.25s-.35,3.57-1.04,5.16c-.69,1.59-1.65,2.98-2.86,4.16-1.21,1.19-2.63,2.12-4.25,2.82-1.62.69-3.35,1.04-5.2,1.04h-16.3Z"/>
    <path class="cls-16" d="M1605.09,210.46h-34.77l-6.85,17.17c-.69,1.79-1.71,3.3-3.03,4.51-1.33,1.21-2.82,2.11-4.47,2.69-1.65.58-3.38.85-5.2.82-1.82-.03-3.6-.42-5.33-1.17-1.79-.75-3.27-1.76-4.42-3.03-1.16-1.27-1.99-2.7-2.51-4.29-.52-1.59-.74-3.27-.65-5.03.09-1.76.53-3.51,1.34-5.25l36.68-84.02c1.16-2.6,2.8-4.61,4.94-6.03,2.14-1.42,4.59-2.12,7.37-2.12,2.6,0,4.97.69,7.11,2.08s3.76,3.38,4.86,5.98l36.07,84.02c.75,1.73,1.18,3.48,1.3,5.25.12,1.76-.07,3.44-.56,5.03-.49,1.59-1.3,3.03-2.43,4.34-1.13,1.3-2.56,2.33-4.29,3.08-1.73.75-3.5,1.14-5.29,1.17-1.79.03-3.5-.26-5.12-.87-1.62-.61-3.09-1.52-4.42-2.73-1.33-1.21-2.4-2.69-3.21-4.42l-7.11-17.17ZM1580.99,183.66h13.09l-6.68-16.13-6.42,16.13Z"/>
    <path class="cls-7" d="M1677.41,208.98l26.27.17c1.85,0,3.58.35,5.2,1.04,1.62.69,3.02,1.65,4.21,2.86,1.18,1.21,2.12,2.63,2.82,4.25.69,1.62,1.04,3.35,1.04,5.2s-.35,3.59-1.04,5.2c-.69,1.62-1.64,3.03-2.82,4.25-1.19,1.21-2.59,2.15-4.21,2.82-1.62.67-3.35.97-5.2.91h-39.71c-1.39,0-2.63-.17-3.73-.52-3.01-.81-5.41-2.46-7.2-4.94-1.73-2.25-2.6-4.88-2.6-7.89v-1.08c0-.38.06-.74.17-1.08v-82.29c0-1.85.35-3.58,1.04-5.2.69-1.62,1.65-3.02,2.86-4.21,1.21-1.18,2.63-2.11,4.25-2.77,1.62-.66,3.35-1,5.2-1s3.6.33,5.25,1c1.65.67,3.08,1.59,4.29,2.77,1.21,1.19,2.17,2.59,2.86,4.21.69,1.62,1.04,3.35,1.04,5.2v71.1Z"/>
  </g>
  <g>
    <path class="cls-14" d="M273.2,0H112.76v76.87c-1.1-.17-2.22-.3-3.35-.41-1.24-.12-2.49-.18-3.73-.18-10.42,0-20.54,3.98-30.51,12.08-.07,1-.13,2.01-.21,3,8.87-7.57,19.11-12.87,30.71-12.87,1.16,0,2.34.05,3.53.17,1.2.11,2.38.25,3.55.44,23.12,3.5,39.13,19.75,54.23,36.53,9.73,10.81,18.36,26.79,33.38,11.05,19.08-20,36.97-46.7,67.61-48.46,32.98-1.9,56.38,36.79,69.93,62.15,11.35,21.22,22.06,45.57,30.08,68.28,11.28,31.98,28.05,87.05-17.79,99.44-34.98,9.46-58.93-26.4-73.9-52.18-2.87-4.94-5.34-10.28-8.23-15.14-11.64-19.67-23.47.03-33.28,9.16-12.58,11.7-30.26,24.06-48.29,23.12-14.98-.79-31.4-11.65-42.23-21.45-5.21-4.71-9.85-10.75-15.01-15.29-7.07-6.21-12.31-4.83-16.49-.54-4.81,4.92-8.21,13.68-11.34,19.2-13.11,23.07-33.55,54.68-62.65,54.68-3.52,0-7.17-.46-10.94-1.46-13.1-3.45-21.23-10.33-25.85-19.21-.65.34-1.31.68-1.97,1,5.27,10.11,14.44,16.96,27.26,20.34,3.85,1.01,7.72,1.53,11.5,1.53,29.14,0,49.81-29.81,64.57-55.79.94-1.65,1.87-3.55,2.88-5.56,1.9-3.82,4.05-8.14,6.54-11.35v131.27h160.44c129.58,0,194.36-61.74,194.36-185.21S402.78,0,273.2,0ZM293.1,82.28c-7.47-4.22-15.09-6.34-22.79-6.34h-.01c-.82,0-1.64.02-2.46.07-24.49,1.41-40.75,17.8-55.99,34.74-.92-.63-1.82-1.28-2.69-1.96,15.18-16.87,32.63-34.6,58.5-36.07.88-.05,1.78-.08,2.65-.08h.01c8.1,0,16.07,2.15,23.84,6.43-.32,1.09-.67,2.16-1.06,3.22ZM380.24,291.84c-5.61,10.7-15.24,17.95-28.61,21.57-4.28,1.16-8.58,1.74-12.79,1.74-2.78,0-5.55-.25-8.28-.76-1.11-1.32-2.17-2.7-3.17-4.14,3.78,1.06,7.6,1.59,11.45,1.59s7.93-.55,11.93-1.63c12.44-3.36,21.36-10.06,26.53-19.91,10.3-19.59,4.03-48.32-4.15-73.28,1.19.03,2.38.1,3.56.22,8.54,26.3,14.19,54.29,3.52,74.6Z"/>
    <path class="cls-6" d="M130.24,157.44v9.59c0,2.15-1.76,3.91-3.91,3.91h-13.15c-1.63,0-2.96,1.32-2.96,2.96v31.5c0,2.15-1.75,3.91-3.91,3.91h-9.59c-2.14,0-3.91-1.75-3.91-3.91v-31.5c0-1.64-1.32-2.96-2.95-2.96h-13.15c-2.14,0-3.91-1.75-3.91-3.91v-9.59c0-2.14,1.76-3.91,3.91-3.91h13.15c1.63,0,2.95-1.32,2.95-2.96v-13.14c0-2.15,1.76-3.91,3.91-3.91h9.59c2.15,0,3.91,1.75,3.91,3.91v13.14c0,1.64,1.33,2.96,2.96,2.96h13.15c2.14,0,3.91,1.76,3.91,3.91Z"/>
    <g>
      <circle class="cls-19" cx="271.68" cy="139.17" r="8.51"/>
      <path class="cls-2" d="M257.18,162.14c0,4.69-3.8,8.49-8.48,8.49s-8.47-3.8-8.47-8.49,3.8-8.47,8.47-8.47,8.48,3.8,8.48,8.47Z"/>
      <path class="cls-1" d="M280.07,185.44c0,4.65-3.77,8.42-8.42,8.42s-8.42-3.77-8.42-8.42,3.77-8.42,8.42-8.42,8.42,3.77,8.42,8.42Z"/>
      <path class="cls-18" d="M302.9,162.23c0,4.64-3.77,8.41-8.42,8.41s-8.41-3.77-8.41-8.41,3.77-8.42,8.41-8.42,8.42,3.77,8.42,8.42Z"/>
    </g>
  </g>
</svg>
