<?xml version="1.0" encoding="UTF-8"?>
<svg id="Camada_3" data-name="Camada 3" xmlns="http://www.w3.org/2000/svg" xmlns:xlink="http://www.w3.org/1999/xlink" viewBox="0 0 709.62 493.99">
  <defs>
    <style>
      .cls-1 {
        fill: url(#Nova_amostra_de_gradiente_1-18);
      }

      .cls-2 {
        fill: url(#Nova_amostra_de_gradiente_1-17);
      }

      .cls-3 {
        fill: url(#Nova_amostra_de_gradiente_1-8);
      }

      .cls-4 {
        fill: url(#Nova_amostra_de_gradiente_1);
      }

      .cls-5 {
        fill: url(#Nova_amostra_de_gradiente_1-5);
      }

      .cls-6 {
        fill: url(#Nova_amostra_de_gradiente_1-15);
      }

      .cls-7 {
        fill: url(#Nova_amostra_de_gradiente_1-13);
      }

      .cls-8 {
        fill: url(#Nova_amostra_de_gradiente_1-3);
      }

      .cls-9 {
        fill: url(#Nova_amostra_de_gradiente_1-2);
      }

      .cls-10 {
        fill: url(#Nova_amostra_de_gradiente_1-7);
      }

      .cls-11 {
        fill: url(#Nova_amostra_de_gradiente_1-6);
      }

      .cls-12 {
        fill: url(#Nova_amostra_de_gradiente_1-9);
      }

      .cls-13 {
        fill: url(#Nova_amostra_de_gradiente_1-10);
      }

      .cls-14 {
        fill: url(#Nova_amostra_de_gradiente_1-14);
      }

      .cls-15 {
        fill: url(#Nova_amostra_de_gradiente_1-4);
      }

      .cls-16 {
        fill: url(#Nova_amostra_de_gradiente_1-12);
      }

      .cls-17 {
        fill: url(#Nova_amostra_de_gradiente_1-11);
      }

      .cls-18 {
        fill: url(#Nova_amostra_de_gradiente_1-19);
      }

      .cls-19 {
        fill: url(#Nova_amostra_de_gradiente_1-16);
      }
    </style>
    <linearGradient id="Nova_amostra_de_gradiente_1" data-name="Nova amostra de gradiente 1" x1="-41.22" y1="440.53" x2="662.78" y2="628.97" gradientUnits="userSpaceOnUse">
      <stop offset="0" stop-color="#ffac13"/>
      <stop offset="1" stop-color="#fe7003"/>
    </linearGradient>
    <linearGradient id="Nova_amostra_de_gradiente_1-2" data-name="Nova amostra de gradiente 1" x1="-37.52" y1="426.7" x2="666.48" y2="615.15" xlink:href="#Nova_amostra_de_gradiente_1"/>
    <linearGradient id="Nova_amostra_de_gradiente_1-3" data-name="Nova amostra de gradiente 1" x1="-34.76" y1="416.4" x2="669.24" y2="604.84" xlink:href="#Nova_amostra_de_gradiente_1"/>
    <linearGradient id="Nova_amostra_de_gradiente_1-4" data-name="Nova amostra de gradiente 1" x1="-31.21" y1="403.12" x2="672.79" y2="591.57" xlink:href="#Nova_amostra_de_gradiente_1"/>
    <linearGradient id="Nova_amostra_de_gradiente_1-5" data-name="Nova amostra de gradiente 1" x1="-25.16" y1="380.52" x2="678.84" y2="568.97" xlink:href="#Nova_amostra_de_gradiente_1"/>
    <linearGradient id="Nova_amostra_de_gradiente_1-6" data-name="Nova amostra de gradiente 1" x1="-23" y1="372.45" x2="681" y2="560.89" xlink:href="#Nova_amostra_de_gradiente_1"/>
    <linearGradient id="Nova_amostra_de_gradiente_1-7" data-name="Nova amostra de gradiente 1" x1="-17.51" y1="351.97" x2="686.49" y2="540.41" xlink:href="#Nova_amostra_de_gradiente_1"/>
    <linearGradient id="Nova_amostra_de_gradiente_1-8" data-name="Nova amostra de gradiente 1" x1="-13.84" y1="338.26" x2="690.16" y2="526.71" xlink:href="#Nova_amostra_de_gradiente_1"/>
    <linearGradient id="Nova_amostra_de_gradiente_1-9" data-name="Nova amostra de gradiente 1" x1="-10.48" y1="325.7" x2="693.52" y2="514.15" xlink:href="#Nova_amostra_de_gradiente_1"/>
    <linearGradient id="Nova_amostra_de_gradiente_1-10" data-name="Nova amostra de gradiente 1" x1="-7.19" y1="313.41" x2="696.81" y2="501.86" xlink:href="#Nova_amostra_de_gradiente_1"/>
    <linearGradient id="Nova_amostra_de_gradiente_1-11" data-name="Nova amostra de gradiente 1" x1="-3.8" y1="300.75" x2="700.2" y2="489.2" xlink:href="#Nova_amostra_de_gradiente_1"/>
    <linearGradient id="Nova_amostra_de_gradiente_1-12" data-name="Nova amostra de gradiente 1" x1="-1.81" y1="293.29" x2="702.19" y2="481.73" xlink:href="#Nova_amostra_de_gradiente_1"/>
    <linearGradient id="Nova_amostra_de_gradiente_1-13" data-name="Nova amostra de gradiente 1" x1="1.96" y1="279.21" x2="705.96" y2="467.66" xlink:href="#Nova_amostra_de_gradiente_1"/>
    <linearGradient id="Nova_amostra_de_gradiente_1-14" data-name="Nova amostra de gradiente 1" x1="318.75" y1="-17.91" x2="336.52" y2="330.54" xlink:href="#Nova_amostra_de_gradiente_1"/>
    <linearGradient id="Nova_amostra_de_gradiente_1-15" data-name="Nova amostra de gradiente 1" x1="202.42" y1="-11.97" x2="220.2" y2="336.47" xlink:href="#Nova_amostra_de_gradiente_1"/>
    <linearGradient id="Nova_amostra_de_gradiente_1-16" data-name="Nova amostra de gradiente 1" x1="357.37" y1="-19.88" x2="375.15" y2="328.57" xlink:href="#Nova_amostra_de_gradiente_1"/>
    <linearGradient id="Nova_amostra_de_gradiente_1-17" data-name="Nova amostra de gradiente 1" x1="335.53" y1="-18.76" x2="353.31" y2="329.68" xlink:href="#Nova_amostra_de_gradiente_1"/>
    <linearGradient id="Nova_amostra_de_gradiente_1-18" data-name="Nova amostra de gradiente 1" x1="355.2" y1="-19.77" x2="372.98" y2="328.68" xlink:href="#Nova_amostra_de_gradiente_1"/>
    <linearGradient id="Nova_amostra_de_gradiente_1-19" data-name="Nova amostra de gradiente 1" x1="376.93" y1="-20.87" x2="394.7" y2="327.57" xlink:href="#Nova_amostra_de_gradiente_1"/>
  </defs>
  <g>
    <path class="cls-4" d="M19.13,464.68l-3.21,21.85c-.17,1.11-.53,2.11-1.06,3-.54.9-1.21,1.65-2.02,2.25-.81.6-1.73,1.04-2.77,1.32-1.04.28-2.11.33-3.21.16-1.11-.17-2.1-.53-2.98-1.06-.88-.54-1.63-1.21-2.25-2.02-.62-.81-1.07-1.73-1.35-2.74-.28-1.02-.35-2.08-.21-3.19l7.41-49.98c.14-1.24.57-2.35,1.29-3.31.9-1.48,2.21-2.57,3.94-3.26,1-.41,2.02-.61,3.05-.6,1.04.02,2.02.22,2.95.62.93.4,1.78.96,2.54,1.68.76.73,1.36,1.59,1.81,2.59l13.31,32.47,13.15-32.47c.42-1,.99-1.86,1.74-2.59.74-.72,1.58-1.28,2.51-1.66.93-.38,1.92-.59,2.95-.62,1.04-.03,2.05.16,3.06.57.76.31,1.45.73,2.07,1.24.9.59,1.63,1.35,2.2,2.28.57.93.92,1.97,1.06,3.11l6.73,50.18c.14,1.11.05,2.17-.26,3.19-.31,1.02-.79,1.93-1.42,2.72-.64.79-1.42,1.45-2.33,1.97-.92.52-1.92.83-3.03.93-1.11.14-2.16.07-3.16-.21-1-.28-1.91-.72-2.72-1.32-.81-.6-1.48-1.36-2.02-2.28-.54-.91-.87-1.92-1.01-3.03l-2.85-21.23-9.43,23.1c-.38.9-.89,1.68-1.53,2.36-.64.67-1.36,1.22-2.15,1.63-.79.41-1.64.69-2.54.83-.9.14-1.81.12-2.75-.05-1.24-.24-2.38-.77-3.42-1.58-1.04-.81-1.85-1.87-2.43-3.19l-9.68-23.67Z"/>
    <path class="cls-9" d="M95.57,485.45c0,1.11-.21,2.14-.62,3.11-.41.97-.98,1.8-1.71,2.51-.73.71-1.58,1.26-2.56,1.66-.98.4-2.03.6-3.13.6s-2.14-.2-3.11-.6c-.97-.4-1.81-.95-2.54-1.66-.72-.71-1.29-1.54-1.71-2.51-.41-.97-.62-2-.62-3.11v-50.55c0-1.1.21-2.13.62-3.08.41-.95.98-1.78,1.71-2.49.73-.71,1.57-1.27,2.54-1.68.97-.41,2-.62,3.11-.62s2.15.21,3.13.62c.98.41,1.84.98,2.56,1.68.73.71,1.29,1.54,1.71,2.49.41.95.62,1.98.62,3.08v50.55Z"/>
    <path class="cls-8" d="M130.42,469.65c-4.11-.73-7.73-1.67-10.88-2.85-3.14-1.17-5.77-2.63-7.87-4.38-2.11-1.74-3.7-3.79-4.76-6.14-1.07-2.35-1.61-5.04-1.61-8.08s.61-5.88,1.84-8.52,2.92-4.94,5.08-6.89c2.16-1.95,4.69-3.48,7.59-4.58,2.9-1.1,6.04-1.66,9.42-1.66,2.07,0,4.14.21,6.21.62,2.07.41,4.04,1.04,5.9,1.86s3.56,1.86,5.08,3.08c1.52,1.23,2.76,2.65,3.73,4.27.45.73.72,1.48.8,2.28.08.79.05,1.56-.1,2.3-.16.74-.42,1.43-.8,2.07-.38.64-.81,1.18-1.29,1.63-.52.55-1.17,1.01-1.94,1.37-.78.36-1.61.6-2.51.7-.9.1-1.82.05-2.77-.16-.95-.21-1.86-.6-2.72-1.19-.9-.38-1.63-.74-2.2-1.09-.57-.34-1.16-.65-1.76-.91-.6-.26-1.32-.47-2.15-.62-.83-.16-1.92-.23-3.26-.23-1.49,0-2.74.16-3.75.47-1.02.31-1.86.73-2.51,1.24-.66.52-1.12,1.11-1.4,1.76-.28.66-.41,1.33-.41,2.02,0,1,.25,1.8.75,2.41.5.6,1.32,1.11,2.46,1.53,1.14.41,2.61.79,4.4,1.14,1.79.35,3.99.76,6.58,1.24,2.24.41,4.45,1.04,6.6,1.89,2.16.85,4.09,1.99,5.8,3.44,1.71,1.45,3.09,3.25,4.14,5.41,1.05,2.16,1.58,4.74,1.58,7.74,0,2.8-.6,5.47-1.81,8.03-1.21,2.56-2.9,4.81-5.08,6.76-2.17,1.95-4.78,3.5-7.82,4.64-3.04,1.14-6.39,1.71-10.05,1.71-2.76,0-5.39-.35-7.87-1.06-2.49-.71-4.76-1.66-6.81-2.85-2.05-1.19-3.86-2.59-5.41-4.19s-2.76-3.29-3.62-5.05c-.62-1.28-.98-2.48-1.06-3.6-.09-1.12.03-2.15.36-3.08.33-.93.82-1.75,1.48-2.46.66-.71,1.4-1.3,2.23-1.79,2.04-1.1,3.93-1.35,5.67-.73,1.74.62,3.53,2.07,5.36,4.35.72.76,1.45,1.42,2.17,1.99.72.57,1.49,1.04,2.3,1.4.81.36,1.69.63,2.64.8.95.17,2.01.26,3.19.26,1.04,0,2.05-.1,3.03-.31.98-.21,1.86-.5,2.62-.88.76-.38,1.37-.82,1.84-1.32.47-.5.7-1.06.7-1.68,0-.73-.22-1.32-.67-1.79-.45-.47-1.03-.85-1.73-1.17-.71-.31-1.49-.55-2.36-.72-.86-.17-1.71-.33-2.54-.47Z"/>
    <path class="cls-15" d="M183.55,469.65c-4.11-.73-7.73-1.67-10.88-2.85-3.14-1.17-5.77-2.63-7.87-4.38-2.11-1.74-3.7-3.79-4.76-6.14-1.07-2.35-1.61-5.04-1.61-8.08s.61-5.88,1.84-8.52c1.22-2.64,2.92-4.94,5.08-6.89,2.16-1.95,4.69-3.48,7.59-4.58,2.9-1.1,6.04-1.66,9.43-1.66,2.07,0,4.14.21,6.21.62,2.07.41,4.04,1.04,5.9,1.86s3.56,1.86,5.08,3.08c1.52,1.23,2.76,2.65,3.73,4.27.45.73.72,1.48.8,2.28.08.79.05,1.56-.1,2.3-.16.74-.42,1.43-.8,2.07-.38.64-.81,1.18-1.29,1.63-.52.55-1.17,1.01-1.94,1.37-.78.36-1.61.6-2.51.7-.9.1-1.82.05-2.77-.16-.95-.21-1.86-.6-2.72-1.19-.9-.38-1.63-.74-2.2-1.09-.57-.34-1.16-.65-1.76-.91-.6-.26-1.32-.47-2.15-.62-.83-.16-1.92-.23-3.26-.23-1.48,0-2.74.16-3.75.47-1.02.31-1.86.73-2.51,1.24-.66.52-1.12,1.11-1.4,1.76-.28.66-.41,1.33-.41,2.02,0,1,.25,1.8.75,2.41.5.6,1.32,1.11,2.46,1.53,1.14.41,2.61.79,4.4,1.14,1.79.35,3.99.76,6.58,1.24,2.24.41,4.44,1.04,6.6,1.89,2.16.85,4.09,1.99,5.8,3.44,1.71,1.45,3.09,3.25,4.14,5.41,1.05,2.16,1.58,4.74,1.58,7.74,0,2.8-.6,5.47-1.81,8.03-1.21,2.56-2.9,4.81-5.08,6.76-2.18,1.95-4.78,3.5-7.82,4.64-3.04,1.14-6.39,1.71-10.05,1.71-2.76,0-5.39-.35-7.87-1.06-2.49-.71-4.76-1.66-6.81-2.85-2.05-1.19-3.86-2.59-5.41-4.19s-2.76-3.29-3.62-5.05c-.62-1.28-.98-2.48-1.06-3.6-.09-1.12.03-2.15.36-3.08.33-.93.82-1.75,1.48-2.46.66-.71,1.4-1.3,2.23-1.79,2.04-1.1,3.93-1.35,5.67-.73,1.74.62,3.53,2.07,5.36,4.35.72.76,1.45,1.42,2.17,1.99.72.57,1.49,1.04,2.3,1.4.81.36,1.69.63,2.64.8.95.17,2.01.26,3.19.26,1.04,0,2.05-.1,3.03-.31.98-.21,1.86-.5,2.62-.88.76-.38,1.37-.82,1.84-1.32.47-.5.7-1.06.7-1.68,0-.73-.22-1.32-.67-1.79-.45-.47-1.03-.85-1.74-1.17-.71-.31-1.49-.55-2.36-.72-.86-.17-1.71-.33-2.54-.47Z"/>
    <path class="cls-5" d="M249.89,478.25h-20.77l-4.09,10.25c-.41,1.07-1.02,1.97-1.81,2.69-.79.72-1.68,1.26-2.67,1.61-.98.35-2.02.51-3.11.49-1.09-.02-2.15-.25-3.18-.7-1.07-.45-1.95-1.05-2.64-1.81-.69-.76-1.19-1.61-1.5-2.56-.31-.95-.44-1.95-.39-3,.05-1.05.32-2.1.8-3.13l21.91-50.18c.69-1.55,1.67-2.75,2.95-3.6,1.28-.85,2.75-1.27,4.4-1.27,1.55,0,2.97.41,4.25,1.24s2.24,2.02,2.9,3.57l21.54,50.18c.45,1.04.71,2.08.78,3.13.07,1.05-.04,2.05-.34,3-.29.95-.78,1.81-1.45,2.59s-1.53,1.39-2.56,1.84c-1.04.45-2.09.68-3.16.7-1.07.02-2.09-.16-3.06-.52-.97-.36-1.85-.91-2.64-1.63-.79-.72-1.43-1.61-1.92-2.64l-4.25-10.25ZM222.45,410.97c.28-.28.55-.5.83-.67.28-.17.57-.34.88-.52.52-.38,1.11-.81,1.79-1.29.67-.48,1.42-.93,2.25-1.35.83-.41,1.72-.76,2.67-1.04.95-.28,1.94-.41,2.98-.41,1.45,0,2.68.22,3.7.65,1.02.43,2.08,1.04,3.18,1.84.1.07.25.2.44.39.19.19.41.37.65.54.24.17.51.33.8.47.29.14.59.21.91.21-.07,0,.14-.05.62-.16s1.23-.55,2.23-1.35c.62-.59,1.33-1.03,2.12-1.32.79-.29,1.61-.43,2.43-.41.83.02,1.63.18,2.41.49.78.31,1.46.79,2.05,1.45.62.62,1.08,1.32,1.37,2.1s.44,1.56.44,2.36-.16,1.58-.47,2.36-.78,1.48-1.4,2.1l-.05.05c-.24.24-.48.44-.7.6-.22.16-.47.32-.75.49-.48.38-1.07.81-1.76,1.29-.69.48-1.47.93-2.33,1.35-.86.41-1.79.77-2.77,1.06-.98.29-2.01.44-3.08.44-1.38,0-2.6-.22-3.65-.65-1.05-.43-2.12-1.04-3.18-1.84-.07-.03-.19-.14-.36-.31-.17-.17-.39-.35-.65-.54-.26-.19-.54-.36-.83-.52-.29-.16-.6-.23-.91-.23-.03,0-.28.05-.75.16-.47.1-1.17.55-2.1,1.35-.62.62-1.33,1.09-2.12,1.4-.79.31-1.61.46-2.43.44-.83-.02-1.64-.18-2.43-.49-.79-.31-1.5-.78-2.12-1.4-.59-.62-1.03-1.33-1.32-2.12-.29-.79-.44-1.61-.44-2.43s.16-1.63.47-2.41.78-1.48,1.4-2.1ZM235.5,462.25h7.82l-3.99-9.63-3.83,9.63Z"/>
    <path class="cls-11" d="M305.1,426.56c3.07,0,6.05.41,8.93,1.22,2.88.81,5.58,1.94,8.08,3.39,2.5,1.45,4.78,3.2,6.84,5.26,2.05,2.05,3.81,4.33,5.28,6.84,1.47,2.5,2.61,5.19,3.42,8.05.81,2.87,1.22,5.85,1.22,8.96,0,4.66-.89,9.03-2.67,13.1-1.78,4.07-4.2,7.64-7.25,10.69-3.06,3.06-6.64,5.46-10.75,7.22-4.11,1.76-8.48,2.64-13.1,2.64s-9.04-.88-13.13-2.64c-4.09-1.76-7.65-4.17-10.67-7.22-3.02-3.06-5.4-6.62-7.15-10.69-1.74-4.07-2.62-8.44-2.62-13.1,0-3.11.4-6.09,1.19-8.96.79-2.87,1.92-5.55,3.37-8.05,1.45-2.5,3.19-4.78,5.23-6.84,2.04-2.05,4.3-3.81,6.79-5.26,2.49-1.45,5.16-2.58,8.03-3.39,2.87-.81,5.85-1.22,8.96-1.22ZM305.15,442.72c-2.45,0-4.75.46-6.89,1.37-2.14.92-4.01,2.17-5.59,3.75-1.59,1.59-2.83,3.45-3.73,5.59-.9,2.14-1.35,4.42-1.35,6.84s.45,4.81,1.35,6.97c.9,2.16,2.14,4.02,3.73,5.59,1.59,1.57,3.45,2.81,5.59,3.7,2.14.9,4.44,1.35,6.89,1.35s4.75-.45,6.89-1.35c2.14-.9,4-2.13,5.57-3.7,1.57-1.57,2.81-3.44,3.73-5.59.91-2.16,1.37-4.48,1.37-6.97s-.46-4.69-1.37-6.84c-.92-2.14-2.16-4-3.73-5.59-1.57-1.59-3.43-2.84-5.57-3.75-2.14-.91-4.44-1.37-6.89-1.37Z"/>
    <path class="cls-10" d="M390.91,427.03c3.07,0,6.05.39,8.93,1.17s5.58,1.88,8.08,3.31c2.5,1.43,4.78,3.16,6.84,5.18,2.05,2.02,3.82,4.26,5.28,6.71,1.47,2.45,2.61,5.1,3.42,7.95.81,2.85,1.22,5.83,1.22,8.93s-.41,6.07-1.22,8.88c-.81,2.81-1.94,5.45-3.39,7.9-1.45,2.45-3.2,4.67-5.26,6.65-2.05,1.99-4.32,3.69-6.81,5.1-2.49,1.42-5.15,2.52-8,3.31-2.85.79-5.81,1.19-8.88,1.19h-12.01c-1.11,0-2.14-.2-3.11-.6-.97-.4-1.81-.95-2.54-1.66-.72-.71-1.29-1.54-1.71-2.51-.41-.97-.62-2-.62-3.11v-50.55c0-1.1.21-2.13.62-3.08.41-.95.98-1.78,1.71-2.49.73-.71,1.57-1.27,2.54-1.68.97-.41,2-.62,3.11-.62h11.81ZM408.52,460.28c0-2.42-.46-4.67-1.37-6.76-.92-2.09-2.16-3.89-3.73-5.41-1.57-1.52-3.43-2.72-5.57-3.6s-4.44-1.32-6.89-1.32h-3.83v34.08h3.83c2.45,0,4.75-.41,6.89-1.24s4-1.99,5.57-3.5c1.57-1.5,2.81-3.3,3.73-5.39.91-2.09,1.37-4.38,1.37-6.86Z"/>
    <path class="cls-3" d="M449.64,485.45c0,1.11-.21,2.14-.62,3.11-.41.97-.98,1.8-1.71,2.51-.72.71-1.58,1.26-2.56,1.66-.98.4-2.03.6-3.13.6s-2.14-.2-3.11-.6c-.97-.4-1.81-.95-2.54-1.66-.72-.71-1.29-1.54-1.71-2.51-.41-.97-.62-2-.62-3.11v-50.55c0-1.1.21-2.13.62-3.08.41-.95.98-1.78,1.71-2.49.72-.71,1.57-1.27,2.54-1.68.97-.41,2-.62,3.11-.62s2.15.21,3.13.62c.98.41,1.84.98,2.56,1.68.72.71,1.29,1.54,1.71,2.49.41.95.62,1.98.62,3.08v50.55Z"/>
    <path class="cls-12" d="M474.65,460.28c0,2.49.45,4.81,1.35,6.97.9,2.16,2.14,4.02,3.73,5.59,1.59,1.57,3.45,2.81,5.59,3.7,2.14.9,4.44,1.35,6.89,1.35,2.66,0,5.01-.31,7.07-.93,2.05-.62,3.7-1.66,4.95-3.11h-2.54c-1.11,0-2.14-.21-3.11-.62-.97-.41-1.8-.98-2.51-1.71-.71-.73-1.26-1.58-1.66-2.56-.4-.98-.6-2.03-.6-3.13s.2-2.09.6-3.06c.4-.97.95-1.81,1.66-2.54.71-.73,1.54-1.3,2.51-1.73.97-.43,2-.65,3.11-.65l13.05.1c1.1,0,2.14.21,3.11.62.97.41,1.81.97,2.54,1.66.72.69,1.3,1.52,1.73,2.49.43.97.65,2.02.65,3.16.07,4.04-.71,7.78-2.33,11.21-1.62,3.44-3.83,6.4-6.63,8.91-2.8,2.5-6.06,4.45-9.79,5.85-3.73,1.4-7.68,2.1-11.86,2.1-3.11,0-6.09-.4-8.96-1.19-2.87-.79-5.54-1.92-8.03-3.37-2.49-1.45-4.75-3.19-6.78-5.23-2.04-2.04-3.78-4.3-5.23-6.78-1.45-2.49-2.57-5.15-3.37-8s-1.19-5.83-1.19-8.93.39-6.04,1.17-8.91c.78-2.87,1.88-5.55,3.31-8.05,1.43-2.5,3.15-4.8,5.15-6.89,2-2.09,4.23-3.88,6.68-5.36,2.45-1.48,5.1-2.63,7.95-3.44,2.85-.81,5.83-1.22,8.93-1.22,4.83,0,9.24.84,13.21,2.51,3.97,1.68,7.63,4.17,10.98,7.48.76.76,1.33,1.61,1.71,2.56.38.95.57,1.93.57,2.93s-.19,1.99-.57,2.98-.95,1.86-1.71,2.62c-.79.76-1.67,1.34-2.64,1.73-.97.4-1.96.61-2.98.65-1.02.03-2.02-.13-3-.49-.98-.36-1.87-.94-2.67-1.73-1.83-1.76-3.82-3.04-5.96-3.83-2.14-.79-4.38-1.19-6.73-1.19s-4.58.45-6.68,1.35c-2.11.9-3.95,2.13-5.52,3.7-1.57,1.57-2.82,3.43-3.75,5.57-.93,2.14-1.4,4.44-1.4,6.89Z"/>
    <path class="cls-13" d="M549.13,485.45c0,1.11-.21,2.14-.62,3.11-.41.97-.98,1.8-1.71,2.51-.72.71-1.58,1.26-2.56,1.66-.98.4-2.03.6-3.13.6s-2.14-.2-3.11-.6c-.97-.4-1.81-.95-2.54-1.66-.72-.71-1.29-1.54-1.71-2.51-.41-.97-.62-2-.62-3.11v-50.55c0-1.1.21-2.13.62-3.08.41-.95.98-1.78,1.71-2.49.73-.71,1.57-1.27,2.54-1.68.97-.41,2-.62,3.11-.62s2.15.21,3.13.62c.98.41,1.84.98,2.56,1.68.73.71,1.29,1.54,1.71,2.49.41.95.62,1.98.62,3.08v50.55Z"/>
    <path class="cls-17" d="M590.97,442.98v42.47c0,1.11-.22,2.14-.65,3.11-.43.97-1.01,1.8-1.73,2.51-.73.71-1.58,1.26-2.56,1.66-.98.4-2.03.6-3.13.6s-2.12-.2-3.03-.6c-.92-.4-1.72-.95-2.41-1.66-.69-.71-1.23-1.54-1.61-2.51-.38-.97-.57-2-.57-3.11v-42.47h-10.25c-1.11,0-2.14-.21-3.11-.62-.97-.41-1.8-.98-2.51-1.71-.71-.73-1.27-1.58-1.68-2.56-.41-.98-.62-2.03-.62-3.13s.21-2.14.62-3.11c.42-.97.98-1.8,1.68-2.51s1.54-1.27,2.51-1.68c.97-.41,2-.62,3.11-.62h35.68c1.1,0,2.14.22,3.11.65.97.43,1.81,1.01,2.54,1.73.73.73,1.29,1.58,1.71,2.56.41.98.62,2.03.62,3.13s-.21,2.13-.62,3.08c-.42.95-.98,1.78-1.71,2.49-.72.71-1.57,1.27-2.54,1.68-.97.41-2,.62-3.11.62h-9.74Z"/>
    <path class="cls-16" d="M642.81,478.25h-20.77l-4.09,10.25c-.41,1.07-1.02,1.97-1.81,2.69-.79.72-1.68,1.26-2.67,1.61-.98.35-2.02.51-3.11.49-1.09-.02-2.15-.25-3.19-.7-1.07-.45-1.95-1.05-2.64-1.81-.69-.76-1.19-1.61-1.5-2.56-.31-.95-.44-1.95-.39-3,.05-1.05.32-2.1.8-3.13l21.91-50.18c.69-1.55,1.67-2.75,2.95-3.6,1.28-.85,2.74-1.27,4.4-1.27,1.55,0,2.97.41,4.25,1.24s2.24,2.02,2.9,3.57l21.54,50.18c.45,1.04.71,2.08.78,3.13.07,1.05-.04,2.05-.34,3-.29.95-.78,1.81-1.45,2.59-.67.78-1.53,1.39-2.56,1.84-1.04.45-2.09.68-3.16.7-1.07.02-2.09-.16-3.06-.52-.97-.36-1.85-.91-2.64-1.63-.79-.72-1.43-1.61-1.92-2.64l-4.25-10.25ZM628.41,462.25h7.82l-3.99-9.63-3.83,9.63Z"/>
    <path class="cls-7" d="M686,477.37l15.69.1c1.1,0,2.14.21,3.11.62.97.41,1.8.98,2.51,1.71.71.73,1.27,1.57,1.68,2.54.41.97.62,2,.62,3.11s-.21,2.14-.62,3.11c-.42.97-.98,1.81-1.68,2.54-.71.73-1.55,1.29-2.51,1.68-.97.4-2,.58-3.11.54h-23.72c-.83,0-1.57-.1-2.23-.31-1.79-.48-3.23-1.47-4.3-2.95-1.04-1.35-1.55-2.92-1.55-4.71v-.65c0-.22.03-.44.1-.65v-49.15c0-1.1.21-2.14.62-3.11.41-.97.98-1.8,1.71-2.51.72-.71,1.57-1.26,2.54-1.66.97-.4,2-.6,3.11-.6s2.15.2,3.13.6c.98.4,1.84.95,2.56,1.66.72.71,1.29,1.55,1.71,2.51.41.97.62,2,.62,3.11v42.47Z"/>
  </g>
  <g>
    <path class="cls-14" d="M366.2,0h-145.48v69.7c-1-.15-2.01-.27-3.04-.37-1.12-.11-2.26-.16-3.38-.16-9.45,0-18.62,3.61-27.66,10.95-.06.91-.12,1.82-.19,2.72,8.04-6.86,17.33-11.67,27.85-11.67,1.05,0,2.12.05,3.2.15,1.09.1,2.16.23,3.22.4,20.96,3.17,35.48,17.91,49.17,33.12,8.82,9.8,16.65,24.29,30.27,10.02,17.3-18.13,33.52-42.34,61.3-43.94,29.9-1.72,51.12,33.36,63.41,56.35,10.29,19.24,20,41.32,27.27,61.91,10.23,29,25.43,78.93-16.13,90.17-31.72,8.58-53.43-23.94-67.01-47.31-2.6-4.48-4.84-9.32-7.46-13.73-10.55-17.84-21.28.03-30.18,8.31-11.41,10.61-27.44,21.82-43.79,20.96-13.58-.72-28.47-10.56-38.29-19.45-4.72-4.27-8.93-9.75-13.61-13.86-6.41-5.63-11.16-4.38-14.95-.49-4.36,4.46-7.44,12.4-10.28,17.41-11.89,20.92-30.42,49.58-56.81,49.58-3.19,0-6.5-.42-9.92-1.32-11.88-3.13-19.25-9.37-23.44-17.42-.59.31-1.19.62-1.79.91,4.78,9.17,13.09,15.38,24.72,18.44,3.49.92,7,1.39,10.43,1.39,26.42,0,45.16-27.03,58.55-50.59.85-1.5,1.7-3.22,2.61-5.04,1.72-3.46,3.67-7.38,5.93-10.29v119.03h145.48c117.49,0,176.23-55.98,176.23-167.94S483.69,0,366.2,0ZM384.24,74.61c-6.77-3.83-13.68-5.75-20.66-5.75h-.01c-.74,0-1.49.02-2.23.06-22.21,1.28-36.95,16.14-50.77,31.5-.83-.57-1.65-1.16-2.44-1.78,13.76-15.3,29.59-31.37,53.04-32.71.8-.05,1.61-.07,2.4-.07h.01c7.34,0,14.57,1.95,21.62,5.83-.29.99-.61,1.96-.96,2.92ZM463.26,264.62c-5.09,9.7-13.82,16.28-25.94,19.56-3.88,1.05-7.78,1.58-11.6,1.58-2.52,0-5.03-.23-7.51-.69-1.01-1.2-1.97-2.45-2.87-3.75,3.43.96,6.89,1.44,10.38,1.44s7.19-.5,10.82-1.48c11.28-3.05,19.37-9.12,24.06-18.05,9.34-17.76,3.65-43.81-3.76-66.45,1.08.03,2.16.09,3.23.2,7.74,23.85,12.87,49.23,3.19,67.64Z"/>
    <path class="cls-6" d="M236.57,142.75v8.69c0,1.95-1.6,3.54-3.54,3.54h-11.92c-1.48,0-2.69,1.2-2.69,2.69v28.57c0,1.95-1.59,3.54-3.54,3.54h-8.69c-1.94,0-3.54-1.59-3.54-3.54v-28.57c0-1.49-1.2-2.69-2.68-2.69h-11.92c-1.94,0-3.54-1.59-3.54-3.54v-8.69c0-1.94,1.6-3.54,3.54-3.54h11.92c1.48,0,2.68-1.2,2.68-2.69v-11.91c0-1.95,1.6-3.54,3.54-3.54h8.69c1.95,0,3.54,1.59,3.54,3.54v11.91c0,1.49,1.21,2.69,2.69,2.69h11.92c1.94,0,3.54,1.6,3.54,3.54Z"/>
    <g>
      <circle class="cls-19" cx="364.82" cy="126.19" r="7.72"/>
      <path class="cls-2" d="M351.67,147.01c0,4.25-3.44,7.69-7.69,7.69s-7.68-3.44-7.68-7.69,3.44-7.68,7.68-7.68,7.69,3.44,7.69,7.68Z"/>
      <path class="cls-1" d="M372.42,168.14c0,4.22-3.42,7.64-7.64,7.64s-7.64-3.42-7.64-7.64,3.42-7.64,7.64-7.64,7.64,3.42,7.64,7.64Z"/>
      <path class="cls-18" d="M393.13,147.1c0,4.21-3.42,7.63-7.64,7.63s-7.63-3.42-7.63-7.63,3.42-7.64,7.63-7.64,7.64,3.42,7.64,7.64Z"/>
    </g>
  </g>
</svg>
