<?xml version="1.0" encoding="UTF-8"?>
<svg id="Camada_3" data-name="Camada 3" xmlns="http://www.w3.org/2000/svg" xmlns:xlink="http://www.w3.org/1999/xlink" viewBox="0 0 423.95 335.88">
  <defs>
    <style>
      .cls-1 {
        fill: url(#Nova_amostra_de_gradiente_1);
      }

      .cls-2 {
        fill: url(#Nova_amostra_de_gradiente_1-5);
      }

      .cls-3 {
        fill: url(#Nova_amostra_de_gradiente_1-3);
      }

      .cls-4 {
        fill: url(#Nova_amostra_de_gradiente_1-2);
      }

      .cls-5 {
        fill: url(#Nova_amostra_de_gradiente_1-6);
      }

      .cls-6 {
        fill: url(#Nova_amostra_de_gradiente_1-4);
      }
    </style>
    <linearGradient id="Nova_amostra_de_gradiente_1" data-name="Nova amostra de gradiente 1" x1="200.27" y1="-17.91" x2="218.05" y2="330.54" gradientUnits="userSpaceOnUse">
      <stop offset="0" stop-color="#ffac13"/>
      <stop offset="1" stop-color="#fe7003"/>
    </linearGradient>
    <linearGradient id="Nova_amostra_de_gradiente_1-2" data-name="Nova amostra de gradiente 1" x1="83.94" y1="-11.97" x2="101.72" y2="336.47" xlink:href="#Nova_amostra_de_gradiente_1"/>
    <linearGradient id="Nova_amostra_de_gradiente_1-3" data-name="Nova amostra de gradiente 1" x1="238.89" y1="-19.88" x2="256.67" y2="328.57" xlink:href="#Nova_amostra_de_gradiente_1"/>
    <linearGradient id="Nova_amostra_de_gradiente_1-4" data-name="Nova amostra de gradiente 1" x1="217.05" y1="-18.76" x2="234.83" y2="329.68" xlink:href="#Nova_amostra_de_gradiente_1"/>
    <linearGradient id="Nova_amostra_de_gradiente_1-5" data-name="Nova amostra de gradiente 1" x1="236.72" y1="-19.77" x2="254.5" y2="328.68" xlink:href="#Nova_amostra_de_gradiente_1"/>
    <linearGradient id="Nova_amostra_de_gradiente_1-6" data-name="Nova amostra de gradiente 1" x1="258.45" y1="-20.87" x2="276.23" y2="327.57" xlink:href="#Nova_amostra_de_gradiente_1"/>
  </defs>
  <path class="cls-1" d="M247.72,0H102.24v69.7c-1-.15-2.01-.27-3.04-.37-1.12-.11-2.26-.16-3.38-.16-9.45,0-18.62,3.61-27.66,10.95-.06.91-.12,1.82-.19,2.72,8.04-6.86,17.33-11.67,27.85-11.67,1.05,0,2.12.05,3.2.15,1.09.1,2.16.23,3.22.4,20.96,3.17,35.48,17.91,49.17,33.12,8.82,9.8,16.65,24.29,30.27,10.02,17.3-18.13,33.52-42.34,61.3-43.94,29.9-1.72,51.12,33.36,63.41,56.35,10.29,19.24,20,41.32,27.27,61.91,10.23,29,25.43,78.93-16.13,90.17-31.72,8.58-53.43-23.94-67.01-47.31-2.6-4.48-4.84-9.32-7.46-13.73-10.55-17.84-21.28.03-30.18,8.31-11.41,10.61-27.44,21.82-43.79,20.96-13.58-.72-28.47-10.56-38.29-19.45-4.72-4.27-8.93-9.75-13.61-13.86-6.41-5.63-11.16-4.38-14.95-.49-4.36,4.46-7.44,12.4-10.28,17.41-11.89,20.92-30.42,49.58-56.81,49.58-3.19,0-6.5-.42-9.92-1.32-11.88-3.13-19.25-9.37-23.44-17.42-.59.31-1.19.62-1.79.91,4.78,9.17,13.09,15.38,24.72,18.44,3.49.92,7,1.39,10.43,1.39,26.42,0,45.16-27.03,58.55-50.59.85-1.5,1.7-3.22,2.61-5.04,1.72-3.46,3.67-7.38,5.93-10.29v119.03h145.48c117.49,0,176.23-55.98,176.23-167.94S365.21,0,247.72,0ZM265.76,74.61c-6.77-3.83-13.68-5.75-20.66-5.75h-.01c-.74,0-1.49.02-2.23.06-22.21,1.28-36.95,16.14-50.77,31.5-.83-.57-1.65-1.16-2.44-1.78,13.76-15.3,29.59-31.37,53.04-32.71.8-.05,1.61-.07,2.4-.07h.01c7.34,0,14.57,1.95,21.62,5.83-.29.99-.61,1.96-.96,2.92ZM344.78,264.62c-5.09,9.7-13.82,16.28-25.94,19.56-3.88,1.05-7.78,1.58-11.6,1.58-2.52,0-5.03-.23-7.51-.69-1.01-1.2-1.97-2.45-2.87-3.75,3.43.96,6.89,1.44,10.38,1.44s7.19-.5,10.82-1.48c11.28-3.05,19.37-9.12,24.06-18.05,9.34-17.76,3.65-43.81-3.76-66.45,1.08.03,2.16.09,3.23.2,7.74,23.85,12.87,49.23,3.19,67.64Z"/>
  <path class="cls-4" d="M118.09,142.75v8.69c0,1.95-1.6,3.54-3.54,3.54h-11.92c-1.48,0-2.69,1.2-2.69,2.69v28.57c0,1.95-1.59,3.54-3.54,3.54h-8.69c-1.94,0-3.54-1.59-3.54-3.54v-28.57c0-1.49-1.2-2.69-2.68-2.69h-11.92c-1.94,0-3.54-1.59-3.54-3.54v-8.69c0-1.94,1.6-3.54,3.54-3.54h11.92c1.48,0,2.68-1.2,2.68-2.69v-11.91c0-1.95,1.6-3.54,3.54-3.54h8.69c1.95,0,3.54,1.59,3.54,3.54v11.91c0,1.49,1.21,2.69,2.69,2.69h11.92c1.94,0,3.54,1.6,3.54,3.54Z"/>
  <g>
    <circle class="cls-3" cx="246.34" cy="126.19" r="7.72"/>
    <path class="cls-6" d="M233.2,147.01c0,4.25-3.44,7.69-7.69,7.69s-7.68-3.44-7.68-7.69,3.44-7.68,7.68-7.68,7.69,3.44,7.69,7.68Z"/>
    <path class="cls-2" d="M253.95,168.14c0,4.22-3.42,7.64-7.64,7.64s-7.64-3.42-7.64-7.64,3.42-7.64,7.64-7.64,7.64,3.42,7.64,7.64Z"/>
    <path class="cls-5" d="M274.65,147.1c0,4.21-3.42,7.63-7.64,7.63s-7.63-3.42-7.63-7.63,3.42-7.64,7.63-7.64,7.64,3.42,7.64,7.64Z"/>
  </g>
</svg>
